<?xml version="1.0" encoding="UTF-8" standalone="no"?>
<svg
   viewBox="15 0 110 110"
   version="2"
   width="100px"
   height="100px"
   xmlns="http://www.w3.org/2000/svg"
   xmlns:svg="http://www.w3.org/2000/svg"
   xmlns:xlink="http://www.w3.org/1999/xlink">
   <style>
      use {
         fill: #0fb0a0;
      }
      use:first-of-type {
         fill: yellow;
      }
   </style>
  <defs>
      <circle
         fill-rule="evenodd"
         stroke-width="0.5"
         stroke="#000"
         id="reddot"
         r="10"
      />
    </defs>
    <path
       fill="none"
       fill-rule="evenodd"
       stroke="#000"
       stroke-width="0.5"
       d="m 75,51.765335 c 2.421436,1.15997 -0.368965,3.836336 -1.927946,4.024587 -4.224743,0.510147 -6.622415,-4.286855 -6.121228,-7.880479 0.896508,-6.428149 7.973835,-9.637037 13.833012,-8.217868 8.598576,2.082687 12.717091,11.70219 10.314508,19.785544 C 88.953523,70.250958 76.71169,75.300709 66.417712,71.888268 53.463791,67.59406 47.474235,52.696077 51.909922,40.197659 57.282133,25.060401 74.853633,18.126598 89.553063,23.593229 106.87583,30.035464 114.75653,50.290588 108.25413,67.188903 100.74686,86.698676 77.801707,95.528002 58.705928,87.986615 37.008091,79.417611 27.228946,53.778118 35.811575,32.485876 45.439988,8.599198 73.776873,-2.130627 97.264847,7.4948822 123.34095,18.181022 135.0221,49.217534 124.35248,74.900686 112.60987,103.16666 78.872048,115.79963 50.994145,104.08496 20.537939,91.286855 6.9527667,54.846409 19.713229,24.774092 22.226527,18.851055 25.659213,13.325461 29.844908,8.4394422"
 />
   <use xlink:href="#reddot" x="30" y="75" />
   <use xlink:href="#reddot" x="50" y="95" />
   <use xlink:href="#reddot" x="70" y="100" />
   <use xlink:href="#reddot" x="90"  y="95" />
   <use xlink:href="#reddot" x="115"  y="75" />
</svg>
